<svg width="12" height="6" viewBox="0 0 12 6" fill="none" xmlns="http://www.w3.org/2000/svg">
<path fill-rule="evenodd" clip-rule="evenodd" d="M11.7901 1.13197C11.8736 1.00084 11.9081 0.8444 11.8875 0.690301C11.8668 0.536201 11.7923 0.394372 11.6772 0.289886C11.562 0.185401 11.4137 0.12499 11.2583 0.119333C11.1029 0.113676 10.9505 0.163138 10.8281 0.258975L8.2721 2.30897C8.16308 2.39153 8.03017 2.43637 7.89343 2.43673C7.75669 2.43709 7.62354 2.39295 7.5141 2.31097L5.0601 0.469975C4.886 0.339632 4.6868 0.246732 4.47505 0.197124C4.2633 0.147516 4.04357 0.142272 3.82969 0.181722C3.61581 0.221173 3.41242 0.304464 3.2323 0.426354C3.05218 0.548244 2.89924 0.706096 2.7831 0.889975L0.216096 4.86998C0.131814 5.001 0.0966746 5.15764 0.116915 5.31211C0.137155 5.46658 0.211466 5.60889 0.32666 5.71377C0.441854 5.81866 0.590481 5.87934 0.746166 5.88505C0.901851 5.89076 1.05453 5.84114 1.1771 5.74498L3.7331 3.69598C3.8422 3.61319 3.97531 3.56821 4.11226 3.56785C4.24922 3.56749 4.38256 3.61176 4.4921 3.69398L6.9441 5.53398C7.11822 5.66449 7.31749 5.75752 7.52935 5.80722C7.7412 5.85692 7.96106 5.86221 8.17506 5.82276C8.38906 5.7833 8.59257 5.69996 8.77277 5.57797C8.95297 5.45598 9.10596 5.298 9.2221 5.11398L11.7901 1.13197Z" fill="#262626"/>
</svg>
